<?xml version="1.0" standalone="no"?>
<!DOCTYPE svg PUBLIC "-//W3C//DTD SVG 20010904//EN"
 "http://www.w3.org/TR/2001/REC-SVG-20010904/DTD/svg10.dtd">
<svg version="1.0" xmlns="http://www.w3.org/2000/svg"
 width="320.000000pt" height="320.000000pt" viewBox="0 0 320.000000 320.000000"
 preserveAspectRatio="xMidYMid meet">
<metadata>
Created by potrace 1.14, written by Peter Selinger 2001-2017
</metadata>
<g transform="translate(0.000000,320.000000) scale(0.100000,-0.100000)"
fill="#000000" stroke="none">
<path d="M1377 3115 c-335 -55 -606 -189 -843 -417 -325 -313 -491 -728 -471
-1178 22 -494 269 -933 681 -1211 263 -177 536 -259 866 -259 717 0 1328 490
1497 1200 37 156 43 427 15 596 -107 627 -584 1121 -1210 1254 -130 28 -409
36 -535 15z m1104 -433 c88 -29 203 -106 261 -172 135 -154 198 -403 154 -602
-18 -81 -70 -198 -112 -253 l-26 -34 41 -54 c122 -161 114 -372 -18 -507 -64
-65 -124 -97 -207 -110 -80 -13 -270 -13 -297 1 -30 15 -247 231 -247 246 0 6
7 19 16 28 14 13 49 15 261 15 241 -1 246 -1 269 21 46 43 23 119 -41 135 -14
3 -62 3 -107 0 -198 -14 -533 -18 -578 -6 -39 10 -71 38 -254 220 -196 195
-208 210 -202 237 4 15 12 33 17 38 6 6 178 12 454 15 428 5 445 6 471 26 69
51 87 127 48 195 -41 71 -18 69 -705 69 l-617 0 -49 28 c-62 34 -423 401 -423
429 0 10 9 29 21 41 l20 23 892 -3 892 -3 66 -23z m-1617 -732 c30 -11 33 -35
9 -62 -18 -20 -21 -33 -29 -129 -8 -94 10 -134 68 -148 106 -27 121 -42 107
-114 -4 -23 -11 -143 -14 -267 -3 -124 -8 -249 -11 -278 l-5 -52 -227 2 -227
3 -12 220 c-14 272 -17 425 -8 447 4 10 27 21 58 28 106 24 123 47 113 162 -3
40 -6 83 -6 96 0 12 -7 25 -15 28 -18 7 -20 60 -2 67 22 10 175 7 201 -3z
m576 -551 c0 -5 -29 -49 -64 -99 -61 -86 -63 -93 -69 -162 -3 -40 -2 -98 1
-128 7 -53 8 -55 47 -68 48 -16 53 -21 35 -32 -19 -12 -171 -12 -190 0 -18 11
-13 16 35 32 l40 13 3 105 c2 58 0 119 -3 136 -3 18 -35 70 -70 115 -36 46
-65 87 -65 91 0 8 252 16 283 9 9 -2 17 -7 17 -12z m-739 -605 c26 -23 29 -51
8 -78 -18 -23 -18 -24 1 -41 27 -24 26 -76 -1 -101 -15 -13 -40 -20 -90 -22
l-69 -4 0 130 0 131 28 4 c42 7 105 -2 123 -19z m272 -12 c57 -58 44 -183 -24
-217 -67 -35 -147 -10 -173 55 -21 52 -20 75 4 128 35 77 133 94 193 34z m247
23 c76 -39 87 -168 20 -227 -24 -23 -40 -28 -79 -28 -84 0 -128 56 -119 150
10 96 96 147 178 105z m655 5 c61 -14 95 -58 95 -121 0 -95 -51 -139 -160
-139 l-60 0 0 129 0 130 28 4 c47 7 56 7 97 -3z m509 4 c9 -3 16 -15 16 -25 0
-17 -5 -18 -38 -13 -28 4 -41 2 -51 -10 -20 -24 -7 -42 43 -65 101 -44 74
-151 -39 -151 -46 0 -65 9 -65 31 0 16 6 17 48 12 37 -4 51 -2 61 11 20 24 6
44 -44 66 -50 21 -71 54 -61 94 10 41 81 69 130 50z m-874 -13 c0 -5 -29 -53
-65 -105 -36 -52 -65 -98 -65 -101 0 -3 29 -5 65 -5 58 0 65 -2 65 -20 0 -19
-7 -20 -100 -20 -83 0 -100 3 -100 15 0 9 29 58 66 110 l65 95 -60 0 c-54 0
-61 2 -61 20 0 19 7 20 95 20 52 0 95 -4 95 -9z m190 -11 c0 -17 -7 -20 -50
-20 -49 0 -50 -1 -50 -29 0 -28 2 -30 47 -33 36 -2 49 -7 51 -20 3 -15 -4 -18
-47 -18 l-51 0 0 -40 0 -40 55 0 c48 0 55 -2 55 -20 0 -18 -7 -20 -80 -20
l-80 0 0 130 0 130 75 0 c68 0 75 -2 75 -20z m474 -97 c21 -65 41 -124 44
-131 3 -10 -3 -13 -23 -10 -22 2 -31 11 -40 37 -9 29 -16 34 -49 37 -36 3 -39
1 -53 -36 -13 -32 -21 -40 -41 -40 -15 0 -22 5 -19 13 2 6 21 65 41 130 l37
117 32 0 33 0 38 -117z m336 67 l0 -50 55 0 55 0 0 50 c0 47 2 50 25 50 l25 0
0 -130 0 -130 -25 0 c-24 0 -25 3 -25 60 l0 60 -55 0 -55 0 0 -60 c0 -57 -1
-60 -25 -60 l-25 0 0 130 0 130 25 0 c23 0 25 -3 25 -50z m-1009 -335 c-6 -35
-9 -41 -10 -20 -1 30 9 78 15 73 2 -2 -1 -26 -5 -53z m416 10 c-1 -31 -6 -44
-14 -40 -7 2 -15 0 -18 -5 -10 -17 -25 -11 -25 9 0 10 8 25 18 32 15 13 16 12
3 -4 -8 -9 -11 -20 -8 -23 11 -12 25 6 31 41 9 48 15 44 13 -10z m94 -10 c-8
-46 -9 -47 -10 -13 -1 34 8 73 15 66 2 -2 -1 -26 -5 -53z m-998 -23 c5 -7 7
-15 4 -19 -4 -3 -9 2 -13 11 -7 19 -35 21 -52 4 -19 -19 -14 1 10 40 l22 36 9
-30 c5 -16 14 -35 20 -42z m191 30 c-8 -2 -14 -12 -14 -23 0 -13 4 -18 12 -13
7 4 8 3 4 -5 -18 -28 -34 16 -20 53 5 12 9 13 19 3 11 -10 11 -13 -1 -15z
m216 3 c0 -9 -7 -18 -15 -21 -8 -4 -12 -10 -9 -15 3 -5 11 -6 17 -3 9 5 9 4 0
-6 -14 -15 -33 -5 -33 19 0 18 18 41 32 41 4 0 8 -7 8 -15z m182 -31 c-2 -21
-8 -43 -14 -49 -6 -7 -7 -1 -3 17 6 23 4 26 -14 21 -26 -7 -28 13 -4 39 25 27
38 16 35 -28z m138 17 c0 -22 -25 -45 -40 -36 -16 10 -12 43 7 54 22 12 33 5
33 -18z m226 0 c-20 -22 -20 -32 -1 -25 8 4 15 4 15 1 0 -12 -30 -15 -39 -3
-13 15 15 60 30 50 6 -4 4 -13 -5 -23z m190 0 c-19 -21 -21 -35 -4 -25 7 4 8
3 4 -4 -10 -17 -26 -15 -33 3 -6 18 25 57 39 49 5 -3 2 -14 -6 -23z m-1102 8
c11 17 22 13 34 -14 7 -15 8 -25 2 -25 -6 0 -10 7 -10 15 0 8 -5 15 -10 15 -6
0 -13 -7 -16 -15 -10 -25 -24 -17 -24 13 0 19 3 23 9 13 6 -9 11 -10 15 -2z
m77 -29 c5 0 14 10 19 23 8 21 9 21 9 -6 1 -50 -35 -88 -54 -57 -4 6 1 7 10 3
10 -3 21 0 26 8 14 22 11 28 -11 22 -17 -4 -20 -1 -19 23 1 24 2 25 6 7 2 -13
9 -23 14 -23z m110 9 c-5 -13 -10 -19 -10 -12 -1 15 10 45 15 40 3 -2 0 -15
-5 -28z m44 -9 c-12 -19 -22 -10 -17 16 4 22 6 24 14 10 5 -9 6 -21 3 -26z
m38 20 c3 -11 1 -23 -4 -26 -5 -3 -9 2 -9 10 0 9 -5 16 -11 16 -5 0 -7 5 -4
10 10 16 22 12 28 -10z m39 -5 c3 -14 1 -25 -3 -25 -5 0 -9 7 -9 15 0 8 -5 15
-11 15 -5 0 -7 5 -4 10 11 17 22 11 27 -15z m169 -11 c-5 -16 -10 -21 -10 -12
-1 18 10 51 15 45 2 -1 -1 -16 -5 -33z m102 16 c-3 -12 0 -20 6 -20 7 0 9 -5
6 -10 -4 -6 -11 -8 -16 -5 -12 8 -12 55 0 55 5 0 7 -9 4 -20z m37 -12 c-1 -26
-3 -30 -10 -16 -6 9 -7 23 -4 32 9 25 14 19 14 -16z m128 21 c-10 -5 -22 -17
-27 -27 -9 -15 -10 -13 -11 8 0 21 5 26 28 28 22 1 24 0 10 -9z m296 -11 c4
12 12 22 17 22 5 0 2 -11 -7 -25 -19 -29 -29 -31 -38 -9 -11 29 -5 39 8 15
l14 -24 6 21z m116 12 c4 7 12 11 16 9 5 -2 -1 -14 -13 -26 l-23 -22 1 27 c0
15 3 21 6 13 4 -10 7 -10 13 -1z m73 -10 c17 24 17 24 17 3 0 -53 -36 -94 -55
-63 -3 5 0 7 9 4 9 -3 19 3 26 16 10 20 10 21 -8 16 -24 -8 -35 5 -25 31 6 16
8 15 13 -7 l6 -24 17 24z m-246 -32 c-3 -7 -5 -2 -5 12 0 14 2 19 5 13 2 -7 2
-19 0 -25z"/>
<path d="M600 745 c0 -32 2 -35 30 -35 38 0 58 31 34 54 -8 9 -26 16 -40 16
-21 0 -24 -5 -24 -35z"/>
<path d="M600 630 c0 -46 13 -56 53 -41 50 19 30 81 -25 81 -26 0 -28 -3 -28
-40z"/>
<path d="M842 759 c-25 -26 -34 -69 -22 -109 13 -46 28 -60 65 -60 39 0 64 25
72 74 14 87 -63 151 -115 95z"/>
<path d="M1120 762 c-34 -27 -39 -108 -10 -144 26 -34 71 -37 100 -8 31 31 28
113 -5 145 -29 30 -55 32 -85 7z"/>
<path d="M1800 685 l0 -95 35 0 c50 0 85 36 85 89 0 22 -3 47 -6 56 -8 20 -56
45 -89 45 l-25 0 0 -95z"/>
<path d="M2097 750 c-10 -29 -27 -83 -27 -86 0 -2 14 -4 30 -4 34 0 37 13 15
70 -8 23 -15 30 -18 20z"/>
<path d="M970 430 c0 -5 5 -10 10 -10 6 0 10 5 10 10 0 6 -4 10 -10 10 -5 0
-10 -4 -10 -10z"/>
<path d="M1570 425 c-18 -21 -3 -32 16 -13 10 9 12 18 6 22 -5 3 -15 -1 -22
-9z"/>
<path d="M1707 423 c-13 -13 -7 -32 8 -27 8 4 15 12 15 20 0 15 -12 19 -23 7z"/>
</g>
</svg>
